<?xml version="1.0" encoding="UTF-8" standalone="no"?>
<svg
   xmlns:dc="http://purl.org/dc/elements/1.1/"
   xmlns:cc="http://creativecommons.org/ns#"
   xmlns:rdf="http://www.w3.org/1999/02/22-rdf-syntax-ns#"
   xmlns:svg="http://www.w3.org/2000/svg"
   xmlns="http://www.w3.org/2000/svg"
   xmlns:sodipodi="http://sodipodi.sourceforge.net/DTD/sodipodi-0.dtd"
   xmlns:inkscape="http://www.inkscape.org/namespaces/inkscape"
   version="1.0"
   width="270.000000pt"
   height="270.000000pt"
   viewBox="0 0 270.000000 270.000000"
   preserveAspectRatio="xMidYMid meet"
   id="svg10"
   sodipodi:docname="favicon.svg"
   inkscape:version="0.92.5 (2060ec1f9f, 2020-04-08)">
  <metadata
     id="metadata16">
    <rdf:RDF>
      <cc:Work
         rdf:about="">
        <dc:format>image/svg+xml</dc:format>
        <dc:type
           rdf:resource="http://purl.org/dc/dcmitype/StillImage" />
        <dc:title></dc:title>
      </cc:Work>
    </rdf:RDF>
  </metadata>
  <defs
     id="defs14" />
  <sodipodi:namedview
     pagecolor="#ffffff"
     bordercolor="#666666"
     borderopacity="1"
     objecttolerance="10"
     gridtolerance="10"
     guidetolerance="10"
     inkscape:pageopacity="0"
     inkscape:pageshadow="2"
     inkscape:window-width="1366"
     inkscape:window-height="713"
     id="namedview12"
     showgrid="false"
     inkscape:zoom="0.65555556"
     inkscape:cx="132.138"
     inkscape:cy="145.62611"
     inkscape:window-x="0"
     inkscape:window-y="27"
     inkscape:window-maximized="1"
     inkscape:current-layer="svg10" />
  <g
     transform="translate(0.000000,270.000000) scale(0.100000,-0.100000)"
     fill="#000000"
     stroke="none"
     id="g8">
    <path
       d="M795 2445 c6 -2 43 -11 83 -19 207 -42 374 -203 427 -411 18 -70 19 -182 4 -257 -25 -122 -122 -268 -224 -338 l-44 -30 -48 145 -47 145 -143 0 -143 0 0 -171 0 -171 -27 6 c-71 17 -160 72 -229 140 -75 76 -123 157 -149 256 -19 70 -19 210 0 280 47 176 176 319 347 385 35 13 55 24 46 25 -35 0 -178 -59 -245 -102 -363 -236 -461 -733 -215 -1095 91 -134 260 -257 410 -299 l62 -17 0 -319 0 -318 670 0 670 0 0 243 0 243 153 64 c83 35 154 65 157 67 2 2 -12 20 -32 40 l-36 36 125 149 c69 82 124 150 122 152 -4 4 -902 -33 -904 -37 -1 -1 -55 -159 -120 -352 -64 -192 -120 -355 -124 -362 -4 -7 -43 98 -88 232 l-81 245 52 35 c66 43 163 144 209 216 82 129 119 261 119 424 0 233 -80 417 -248 574 -83 77 -212 149 -314 175 -52 13 -216 31 -195 21z m302 -1256 l61 -180 -22 -14 c-38 -25 -175 -65 -254 -75 -42 -5 -106 -6 -142 -2 l-65 7 -3 195 -2 195 107 1 c91 0 119 4 178 26 39 14 73 26 76 27 3 1 33 -80 66 -180z"
       id="path2"
       style="fill:#aea54f;fill-opacity:1" />
    <path
       d="M1667 1496 c-31 -101 -57 -186 -57 -190 0 -7 328 2 368 10 22 4 22 6 22 184 l0 180 -138 0 -138 0 -57 -184z"
       id="path4"
       style="fill:#cc0000;fill-opacity:1" />
    <path
       d="M2040 1498 l0 -181 237 6 c130 4 238 9 241 11 2 2 13 40 24 83 11 43 40 116 64 164 24 47 44 88 44 92 0 4 -137 7 -305 7 l-305 0 0 -182z"
       id="path6"
       style="fill:#27ae60;fill-opacity:1" />
  </g>
</svg>
