<svg xmlns="http://www.w3.org/2000/svg" version="1.0" width="1040" height="268" viewBox="0 0 780 201"><path d="M85.5 7.6c2.8.8 5.7 1.6 6.6 1.9 3.6.8 13 6.8 12.5 8-.2.7.3 1.2 1.2 1.1.9 0 3.8 2.9 6.7 6.7C119 33.9 122 42.8 122 53c0 6.9-1.6 15-2.9 15-.4 0-.7.9-.8 2.1-.4 5-10.1 17.1-16.6 20.5-2.9 1.6-2.8 1.6-4.1-3.1-.3-1.1-1.8-5.6-3.3-10l-2.8-8h-24l-.3 13.7c-.2 9-.6 13.8-1.3 13.8-3.3 0-14.6-6.8-19.4-11.6-4.9-4.9-10.4-14.3-12.3-20.8-1.2-4.4-1.3-19.2-.2-23 4.1-13.7 13.8-25.1 26.9-31.7l3.6-1.8-3 .2c-1.7.2-6.8 2.3-11.4 4.8C36.2 20.5 26 32.9 19.9 50c-1.9 5.5-2.3 8.5-2.3 19.5 0 8.2.5 14.4 1.3 16.8.7 2.1 1.4 4.4 1.5 5 1.4 8.2 16 27.3 24 31.7 1.4.7 2.2 1.8 1.9 2.4-.3.6-.3.8.2.4.4-.4 2-.2 3.4.6 7.2 3.6 10.2 4.9 13.3 5.5l3.3.7.5 26.4.5 26.5h111l.3-19.6c.2-16.2.5-19.9 1.8-21 .8-.7 5.1-2.7 9.5-4.5 12.7-5.2 13.9-5.8 13.9-7.2 0-.7-.4-1.1-.8-.8-.5.3-1.6-.8-2.5-2.3-1.5-2.6-1.5-2.9.1-4.7.9-1.1 3.3-3.9 5.3-6.4 2-2.5 5.8-6.7 8.3-9.4 2.6-2.7 4.5-5.4 4.3-6-.4-1.3-4.3-1.3-28.2-.2-9.9.5-24.4 1.1-32.3 1.5l-14.3.6-2 5.5c-1.1 3-3.1 9.1-4.4 13.5-1.4 4.4-3.1 9.6-3.9 11.5-.8 1.9-2.4 6.9-3.7 11-1.2 4.1-2.5 7.9-2.9 8.5-.9 1.2-2.4 6.7-2.2 7.7.1.5-.2.8-.7.8-.8 0-8.1-19.7-8.6-23-.1-.8-.9-3.2-1.8-5.3-.9-2.1-1.9-5.2-2.2-7-.6-3-.3-3.6 3.4-6.1 2.3-1.6 4.1-3.2 4.1-3.5 0-.4 1.5-1.5 3.3-2.4 3.1-1.8 5.3-4.6 10.6-13.7 15.4-26.5 10.4-61.2-11.7-81-10.9-9.8-22.1-14.9-34.1-15.5l-6.6-.3 5 1.4zm14.3 92.1c.6 2.1 2.5 7.8 4.2 12.8 4.1 12.3 4.1 12.7-2.2 15.3-7.9 3.2-14.5 4.3-23.9 4l-8.4-.3-.3-15.8-.3-15.7 8.8-.1c6.1 0 10.2-.6 13.3-1.9 6.7-2.7 7.6-2.5 8.8 1.7z" fill="#aea54f"/><path d="M155.6 69.8c-.9 1.5-8.2 24.4-8.9 28.1l-.7 3.4 15.7-.7c8.7-.4 16.2-1.1 16.6-1.5.4-.4.6-7.2.5-15.2l-.3-14.4-11.2-.3c-6.1-.1-11.4.1-11.7.6z" fill="#c00"/><path d="M181.9 69.4c-.2.2-.3 7.2-.1 15.6l.3 15.1 19.7-.7c10.8-.3 19.8-.7 19.9-.9.2-.1 1.2-3.6 2.3-7.9 1-4.2 3.5-10.5 5.5-14 1.9-3.4 3.5-6.6 3.5-6.9 0-.7-50.4-1-51.1-.3z" fill="#27ae60"/><path d="M428.5 70.2c-1.6.6-3.5 1.8-4.2 2.7-.7.9-1.3 1.2-1.3.7 0-.6-1.1.6-2.5 2.4-2.9 4-5.5 11.8-5.5 16.6 0 5.1 3.6 13.7 7.2 17.1 3.1 3 11.5 7.3 14.1 7.3 1.8 0 13 5.9 13.9 7.3.4.7.8 2.9.8 4.9 0 3-.6 4.2-3.6 6.6-4.4 3.7-7.4 4.3-12.2 2.7-4-1.4-6.6-4.8-8.3-10.9l-1-3.9-5.4.7c-2.9.3-6 .9-6.9 1.2-1.4.5-1.6-2.4-1.8-27.2l-.3-27.9-12.8-.3c-9.7-.2-12.8 0-13.1 1-1.7 5.9-2.8 10.6-4.6 18.3-1.2 4.9-2.9 12.1-4 16-1.1 3.8-2.7 10.1-3.6 13.8-1.9 7.6-3.1 9.1-4 5-.3-1.5-1-4.3-1.6-6-.5-1.8-1.8-6.8-2.9-11-1.1-4.3-2.7-10.3-3.5-13.3-.8-3-2.2-8.2-3-11.5-.8-3.3-2-7.5-2.5-9.3l-1.1-3.2h-29.3c-25.8 0-29.4.2-29.9 1.6-.3.9-.6 18.2-.6 38.6 0 40.9-.1 41.3-5.6 28-1.5-3.7-3.3-7.4-4-8.2-.6-.8-1.4-2.4-1.8-3.5-.3-1.1-2.2-3.7-4.2-5.8-2-2.1-3.5-3.9-3.3-4.1.2-.1 2.1-1 4.1-1.9 4.7-2.2 7.4-5.7 9.3-12 1.7-5.8 1.9-11.4.5-17.5-1.1-4.5-5.5-12.3-6.8-12-.4.1-1.8-.4-3.2-1.2-1.9-1.1-7.1-1.6-21.6-1.8l-19.1-.3-.7 7.8c-.3 4.3-.3 23 0 41.5l.7 33.8h6.4c5.9 0 6.3-.2 6.3-2.3.1-1.2.2-8.7.3-16.7l.2-14.5 2.8-.3c3.9-.5 8.1 1.6 10.2 5.2 1 1.7 4.6 8.7 8.1 15.6l6.3 12.5 7.8.5c15 1 56.1 0 56.5-1.3.3-.7.2-3.9-.1-7.2l-.6-6-17.3-.3-17.3-.2.3-10.3.3-10.2 15.3-.3c12.5-.2 15.2-.5 15.3-1.7.5-5.5.5-8.3.1-10.8l-.4-2.7H309V86.2l3.3-.6c1.7-.3 9.7-.6 17.7-.7l14.4-.1.9 2.8c.4 1.6 1.7 6.5 2.8 10.9 1.1 4.4 3 11.6 4.3 16 6.5 22.5 8.7 30.4 9.4 34l.8 4 7.1.3c8.5.3 8.1.8 11.3-12.3 1.2-5 3-11.9 4.1-15.5 1-3.6 3.5-12.4 5.5-19.5 4.9-18.1 7.5-26.5 8.1-26.5.2 0 .4 2.4.2 5.2-.1 2.9-.1 19.6-.1 37l.2 31.8h13l.1-7.8V133c-.1-3.3.1-4.1.8-3 .6.8 1.1 2.4 1.1 3.5 0 2.5 4.5 11.2 7.4 14.3 3.1 3.4 5.3 4.4 12.9 5.7 6.9 1.2 13 .5 19.7-2.3 9.6-4.1 14.3-23.2 8.6-35.5-3.1-6.9-8.1-10.9-17.2-13.6-13.8-4.3-18.5-8.1-16.5-13.3 1.3-3.6 3.5-4.9 8.9-5.5 4.4-.4 5.1-.2 7.9 2.6 1.7 1.7 3.4 4.4 3.8 6.1.6 2.9.9 3 5.9 3 7.4 0 8.8-1.3 7.5-7-1.6-7.1-4.7-12.3-9.2-15.4-3.7-2.6-5.1-2.9-13.2-3.2-5.2-.2-10.3.1-12 .8zM275 88.2c3 5 2.6 10.3-1 13.9-2.9 2.9-3.1 3-12.2 2.7l-9.3-.3-.3-8.4c-.2-4.6-.1-9 .2-9.8.4-1 3.1-1.3 10.6-1.3h10l2 3.2z" fill="#aea54f"/><path d="M597.4 70.1c-4.4 1.3-11.5 7.9-14.7 13.6-3.5 6.5-5.7 17.3-5.7 27.8 0 16.5 4.4 29.2 12.7 36.5 5.6 4.9 11.3 6.5 21 5.6 11.3-.9 18-5.7 23-16.6 2.7-5.8 5.3-18.3 5.3-26 0-6-2.4-18.6-4.3-23.1-3.9-9-11.5-16.4-18.6-18-4.6-1.1-14.7-1-18.7.2zm14.9 14.3c5.2 1.8 8.2 5.7 10.8 14.1 3.9 12.7 1.3 29.8-5.4 36.3-8.7 8.3-20.2 4.4-24.9-8.4-1.6-4.5-2.1-8.1-2.1-14.9.2-15.3 5-24.9 13.8-27.4 4-1.2 3.5-1.2 7.8.3z" fill="#27ae60"/><path d="M463.6 71.6c-.3.8-.6 4.2-.6 7.5V85h19l.2 33.7.3 33.8 5.8.5c3.2.3 6.2.1 6.7-.4.6-.6 1-14.2 1-34.3V85.1l9.3-.3 9.2-.3v-14l-25.1-.3c-22.3-.2-25.2-.1-25.8 1.4zM525.4 73.5c-.8 1.9-1.9 5.8-2.5 8.7-.6 2.9-1.5 5.7-1.9 6.3-.4.5-1.5 3.9-2.4 7.5-1 3.6-2.3 8.3-3.1 10.5-.7 2.2-2 6.7-2.9 10-1.8 6.4-8 27.1-9.6 32-.5 1.6-.6 3.3-.1 3.8.4.4 3.6.7 7.1.5l6.3-.3 1.4-5c.8-2.8 1.9-6.8 2.6-9l1.2-4 12.2-.2 12.3-.2 1.9 6.2c1 3.4 2.2 7.7 2.6 9.5l.7 3.2h6.9c6.7 0 6.9-.1 6.9-2.6 0-1.4-1.5-7.3-3.4-13.2-1.9-5.9-4.8-15.4-6.6-21.2-1.7-5.8-3.8-12.3-4.5-14.5-.7-2.2-2.7-8.7-4.5-14.5-1.7-5.8-3.8-12-4.6-13.8-1.3-3.1-1.5-3.2-7.9-3.2-6.6 0-6.6 0-8.1 3.5zm10.5 25.1c.5 2.1 1.8 7.5 3 11.8 1.1 4.4 1.8 8.3 1.5 8.8-.3.4-3.6.8-7.5.8-7.9 0-7.8.3-5-9.1 1-3.5 2.6-9.2 3.6-12.7 2-6.7 2.7-6.7 4.4.4z" fill="#aea54f"/><path d="M640.5 71.3c-.3.6-.4 19.2-.3 41.2l.3 40 6.3.3 6.2.3v-28.7c0-15.8.2-28.5.5-28.2.6.6 2.2 8 3.5 16.8.6 3.5 1.7 9.4 2.5 13 .8 3.6 2.1 10.3 3 15 2.5 13 1.8 12 9 12h6.4l1-5.3c.5-2.8 1.7-9.3 2.6-14.2.9-5 2.5-13.1 3.5-18 1.1-5 2.3-10.8 2.7-13 .5-2.6 1 5.6 1.3 23l.5 27 6.3.3c5.4.3 6.2.1 6.2-1.5.1-2 .1-79.3 0-80.6 0-.4-4.3-.6-9.7-.5l-9.6.3-1.9 8.5c-1.8 8.6-4.5 21.2-7.4 35.3-.9 4.3-1.9 7.5-2.3 7.2-.7-.8-4.6-18.8-6.1-28.5-.6-3.6-1.5-7.9-2-9.5-.5-1.7-1.2-5.4-1.6-8.3l-.7-5.2h-9.9c-7 0-10 .4-10.3 1.3zM707 111.5V153h13V70h-13v41.5zM724.8 108.2c-.2 21.1-.1 39.8.1 41.5l.3 3.3H738l.1-15.3c.1-8.3 0-16.2-.1-17.5-.2-2.6.1-2.6 16-2.7h10.5l.3-6.4c.2-3.5-.1-6.8-.7-7.4-.5-.5-6-.9-12.3-.8-6.2.1-11.9-.3-12.6-.7-.9-.6-1.2-3.1-1-8.8l.3-7.9 14.5-.3c10.6-.2 14.8-.6 15.5-1.6.6-.7.8-4.1.7-7.4l-.4-6.2H725l-.2 38.2z" fill="#27ae60"/><path d="M368.7 170.7c-.4.3-.7 3.7-.7 7.5 0 5.1.3 6.9 1.3 6.5 1.3-.4 1.8-7.4.6-9.7-.5-.9-.1-2.2.8-3.2 1.4-1.6 1.4-1.8.1-1.8-.8 0-1.8.3-2.1.7zM495.4 177l-2.9 7-.5-4.7c-.4-4-.9-4.8-2.5-4.8-1.4 0-2.3 1-3 3.2l-1.1 3.3-1.3-3.6c-.9-2.4-1.8-3.4-2.9-3.2-2.4.5-3.1 10.8-.8 10.8 1 0 1.6-.9 1.7-2.3v-2.2l.9 2.2c1.3 3.1 3.4 2.9 4.7-.5l1.1-2.7.1 2.7c.1 2.7.1 2.7 7.5 2.5l7.3-.1-2.4-5.5c-1.7-3.8-2.1-5.7-1.4-6.4 1.5-1.5 1.4-2.7-.2-2.7-.7 0-2.6 3.2-4.3 7zM218 178c0 5.6.3 7 1.5 7 .9 0 1.5-.9 1.5-2.5 0-1.4.4-2.5 1-2.5.5 0 1.7 1.1 2.6 2.5 1.5 2.3 2.3 2.5 8.5 2.5 3.9 0 6.9-.4 6.9-1s-1.6-1-3.5-1-3.5-.5-3.5-1c0-.6 1.4-1 3-1 4.2 0 4-2.7-.2-3.3-3.2-.4-3.2-.4.5-.5 3.6-.2 4 .1 5.5 3.8 2.1 4.9 5 5.4 5.9 1 .3-1.7 1-3.3 1.4-3.6 1.3-.7 1.1-4.4-.2-4.4-.5 0-1.5 1.3-2 3-1.4 3.8-2.6 3.8-3.4 0-.7-3.1-.7-3.1-6.8-2.8l-6.2.3-.5 4.7-.5 4.6-1.8-2.4c-1.6-2.1-1.6-2.5-.3-3 1.9-.7 2.1-4.5.4-6.2-.7-.7-3.1-1.2-5.5-1.2H218v7zm7.5-2.5c0 .5-1 1.1-2.2 1.3-1.6.2-2.3-.2-2.3-1.3s.7-1.5 2.3-1.3c1.2.2 2.2.7 2.2 1.3zM316 173c-3.8 3.8-1.9 11.8 2.8 12.1 3.8.3 5.8-.3 7.5-2.3 5.5-6.5-4.2-15.9-10.3-9.8zm8.1 3.1c1.5 2.9-.3 6.9-3.1 6.9-2.8 0-4.6-4-3.1-6.9.7-1.1 2-2.1 3.1-2.1s2.4 1 3.1 2.1zM435 178c0 5.6.3 7 1.5 7 1.1 0 1.5-1.2 1.6-4.3l.1-4.2 1 4.2c1.3 5.9 4.1 5.9 5.5 0l1.1-4.2.1 4.2.1 4.2 7.4-.2 7.3-.1-2.2-5c-1.2-2.8-2.7-5.2-3.4-5.4-.6-.2-2.2 2-3.6 5l-2.5 5.3v-6.8c0-6.5-.1-6.7-2.5-6.7-2.1 0-2.6.6-3.1 4.2-.6 3.7-.8 3.9-2.1 2.3-.7-1.1-1.3-2.9-1.3-4.2 0-1.8-.6-2.3-2.5-2.3-2.4 0-2.5.2-2.5 7zM579 178.1c0 6.2.2 7 1.8 6.7.9-.2 1.6-.7 1.5-1.1-.2-.4-.3-3.4-.3-6.7 0-4.7-.3-6-1.5-6s-1.5 1.5-1.5 7.1zM657.3 173c.3 1-.1 2.4-.9 3.1-1.7 1.4-1.8 6.1-.2 7.7 1.6 1.6 7 1.6 8.6 0 1.7-1.7 1.5-6.4-.3-8.2-.8-.8-1.2-2.2-.9-3 .5-1.3-.1-1.6-3.1-1.6-3.2 0-3.7.3-3.2 2zm5.2 7c0 1.6-.6 2.6-1.8 2.8-1.9.4-3.2-2-2.3-4.4.9-2.5 4.1-1.3 4.1 1.6zM693 178c0 5.6.3 7 1.5 7 .9 0 1.5-.9 1.5-2.5 0-2 .5-2.5 2.5-2.5 1.6 0 2.5-.6 2.5-1.5s-.9-1.5-2.5-1.5-2.5-.6-2.5-1.5c0-1 1-1.5 3-1.5s3-.5 3-1.5c0-1.1-1.2-1.5-4.5-1.5H693v7zM251 179.5c0 4.2.3 5.5 1.5 5.5s1.5-1.3 1.5-5.5-.3-5.5-1.5-5.5-1.5 1.3-1.5 5.5zM256.9 175.1c-.7.4-.9 1.7-.5 3.2.3 1.4.2 2.8-.4 3.2-.5.3-.7 1.2-.3 2.1.8 2.1 8.7 1.5 9.1-.7.2-.9-.4-2.3-1.2-3.2-1.4-1.3-1.4-1.6 0-2.1 3.5-1.3 4.4-.7 4.4 3.4 0 2.9.4 4 1.5 4s1.5-1.1 1.5-3.9c0-3.1.4-4 2.1-4.4 1.2-.3 1.8-1 1.5-1.6-.8-1.2-15.9-1.2-17.7 0zm4.5 6.8c.3.4.3 1.1 0 1.4-.8.8-3.4-.3-3.4-1.4 0-1.1 2.7-1.2 3.4 0zM275.3 177.7c-.8 2.1-1.9 4.5-2.4 5.4-.7 1.4 0 1.6 5 1.5 5.8-.1 5.9-.1 4.9-2.6-3.4-9.2-5-10.1-7.5-4.3zm3.7 1.8c0 .8-.4 1.5-1 1.5-.5 0-.7-.7-.4-1.5.4-.8.8-1.5 1-1.5.2 0 .4.7.4 1.5zM289 179.6v5.5l4.3-.3c4.1-.3 4.2-.4 4.5-4.3.4-4.5-1.4-6.5-6-6.5-2.7 0-2.8.1-2.8 5.6zm6.2-.9c.7 2.7-.2 4.3-2.3 4.3-1.4 0-1.9-.7-1.9-3s.5-3 1.9-3c1 0 2.1.8 2.3 1.7zM301.6 177.2c-3.1 7.5-3.1 7.4 2.7 7.4h5.3l-1.4-4.1c-2.5-7.3-4.6-8.3-6.6-3.3z"/><path d="M329 179.5v5.5h4c2.2 0 4-.5 4-1 0-.6-1.1-1-2.5-1-2.3 0-2.5-.4-2.5-4.5 0-3.3-.4-4.5-1.5-4.5-1.2 0-1.5 1.3-1.5 5.5zM338 179.5c0 4.2.3 5.5 1.5 5.5s1.5-1.3 1.5-5.5-.3-5.5-1.5-5.5-1.5 1.3-1.5 5.5zM343 179.4c0 4.3.3 5.6 1.5 5.6.9 0 1.5-1 1.6-2.8l.1-2.7.7 2.5c1.1 3.8 3.7 3.7 4.6-.2l.9-3.3.3 3.2c.7 5.4 2.3 3.7 2.3-2.2 0-4.7-.3-5.5-1.9-5.5-2 0-3.1 1.8-3.1 5.3 0 2.8-1.7 1-2.2-2.3-.2-1.7-1-2.6-2.5-2.8-2.2-.3-2.3 0-2.3 5.2zM357.7 174.6c-.4.4-.7 2.9-.7 5.6 0 3.6.4 4.8 1.5 4.8.8 0 1.5-.6 1.5-1.4 0-.8 1-1.6 2.1-1.8 3-.4 4.7-3.3 3.3-5.6-1.1-1.7-6.4-2.9-7.7-1.6zm5.3 3.4c0 .5-.7 1-1.5 1s-1.5-.5-1.5-1c0-.6.7-1 1.5-1s1.5.4 1.5 1zM374.3 176.7c-.7 1.6-1.6 3.9-2.1 5.3l-1 2.5 9.5.3c10.5.3 12.3-.4 12.3-4.8 0-3.5-2.8-6-6.8-6-3.2 0-3.2 0-3.2 5.2-.1 4.6-.2 5-1.3 3.3-.6-1.1-1.6-3.3-2.2-5-1.3-3.9-3.7-4.3-5.2-.8zm15.2 3.3c0 1.6-.6 2.6-1.7 2.8-1.4.3-1.8-.3-1.8-2.8s.4-3.1 1.8-2.8c1.1.2 1.7 1.2 1.7 2.8zm-12.1-.5c.3.8.1 1.5-.4 1.5-.6 0-1-.7-1-1.5s.2-1.5.4-1.5.6.7 1 1.5zM396.5 176.9c-4 7.8-4 7.8 2.5 7.8h5.8l-2.4-5.1c-1.3-2.8-2.8-5.2-3.3-5.4-.5-.2-1.7 1-2.6 2.7zm3.5 3.2c0 .5-.4.9-1 .9-.5 0-1-.7-1-1.6 0-.8.5-1.2 1-.9.6.3 1 1 1 1.6zM409 179.6v5.5l4.8-.3c4.6-.3 4.7-.4 5-3.9.4-4.6-1.8-6.9-6.4-6.9H409v5.6zm6.5.4c0 1.6-.6 2.6-1.7 2.8-1.4.3-1.8-.3-1.8-2.8s.4-3.1 1.8-2.8c1.1.2 1.7 1.2 1.7 2.8zM420.7 174.6c-.4.4-.7 2.9-.7 5.6v4.8h5c2.8 0 5-.5 5-1 0-.6-1.6-1-3.5-1s-3.5-.5-3.5-1c0-.6 1.4-1 3-1 4.2 0 4-2.7-.2-3.3-3.2-.4-3.2-.4.5-.5 2.6-.1 3.7-.6 3.5-1.5-.5-1.3-7.9-2.2-9.1-1.1zM459 175.5c0 .8.7 1.5 1.5 1.5 1.1 0 1.5 1.1 1.5 4s.4 4 1.5 4 1.5-1.1 1.5-4c0-3.3.3-4 2-4s2 .7 2 4v4h4.5c2.5 0 4.5-.5 4.5-1 0-.6-1.3-1-3-1-1.6 0-3-.5-3-1 0-.6 1.4-1 3-1 4.2 0 4-2.7-.2-3.3l-3.3-.4 3.3-.1c2.1-.1 3.2-.7 3.2-1.7 0-1.1-1.9-1.4-9.5-1.4s-9.5.3-9.5 1.4zM502 175.5c0 .8.7 1.5 1.5 1.5 1.1 0 1.5 1.1 1.5 4s.4 4 1.5 4 1.5-1.1 1.5-4c0-3.3.3-4 2-4s2 .7 2 4c0 2.9.4 4 1.5 4s1.5-1.3 1.5-5.4v-5.3l-6.5-.2c-5.2-.1-6.5.2-6.5 1.4zM517.5 176.7c-2.7 4.1-1.1 7.7 3.8 8.1 2.7.2 3.9-.1 4.3-1.3.9-2.2-.2-3-2.1-1.5-2.1 1.8-4.7.5-4.3-2.2.2-1.9.8-2.3 3.6-2 3.4.2 4.6-2 1.6-3.2-3.1-1.2-5.2-.6-6.9 2.1zM529.9 176.7c-.6 1.6-1.7 4-2.5 5.4l-1.3 2.6 5.8-.1 5.8-.1-1-3c-1.3-3.8-3.7-7.5-4.8-7.5-.5 0-1.4 1.2-2 2.7zm3.1 3.3c0 .5-.5 1-1.1 1-.5 0-.7-.5-.4-1 .3-.6.8-1 1.1-1 .2 0 .4.4.4 1zM543 179.5v5.5h3.8c3.2 0 4.1-.5 5-2.6 2-4.3-1-8.4-6-8.4-2.7 0-2.8.2-2.8 5.5zm6.5-1.5c1 1.6-.5 5-2.1 5-.9 0-1.4-1.1-1.4-3 0-3 2.1-4.2 3.5-2zM555.6 177.2c-3.2 7.8-3.7 7.3 7.4 7.5 10 .3 10 .3 10-2.2 0-1.3-.8-2.9-1.7-3.4-1.7-1-1.7-1 0-1.1 2.1 0 2.3-2.6.1-3.4-4.4-1.7-8.7 1-6.7 4.2.7 1.3.7 2.1-.3 3-1.2 1.1-1.5 1-2-.5-2.7-8.3-4.6-9.5-6.8-4.1zm13.9 4.8c.3.5-.1 1-.9 1-.9 0-1.6-.5-1.6-1 0-.6.4-1 .9-1 .6 0 1.3.4 1.6 1zM584 179.5c0 4.2.3 5.5 1.5 5.5.9 0 1.5-.9 1.6-2.3v-2.2l1.6 2.2c.8 1.3 2.4 2.3 3.5 2.3 1.7 0 1.9-.6 1.6-5.2-.4-6.2-2.8-8-2.9-2.1 0 2.2-.3 3.2-.7 2.3-3.5-7.6-6.2-7.8-6.2-.5zM595.8 175.7c-.9 1.1-.9 1.9-.1 3.3.8 1.2.8 2.1.1 2.8-1.7 1.7.1 3.2 4.2 3.2 4.7 0 6.2-2.6 3.1-5.1l-2-1.7 2.2-.6c4.2-1.1 4.7-.7 4.7 3.4 0 2.9.4 4 1.5 4s1.5-1.1 1.5-4 .4-4 1.5-4 1.5 1.1 1.5 4c0 3.3.3 4 2 4s2-.7 2-4 .3-4 2-4 2 .7 2 4c0 2.9.4 4 1.5 4s1.5-1.1 1.5-4 .4-4 1.5-4c.8 0 1.5-.7 1.5-1.4 0-2.2-30.4-2-32.2.1zm4.7 6.3c.3.5-.1 1-.9 1-.9 0-1.6-.5-1.6-1 0-.6.4-1 .9-1 .6 0 1.3.4 1.6 1zM629.2 179.2l.3 5.3h8l.3-5.4c.4-6.7-2-6.8-2.8 0-.7 5.8-2.4 5.6-2.8-.4-.2-3.4-.7-4.7-1.8-4.7-1.2 0-1.4 1.1-1.2 5.2zM640 179.5c0 4.2.3 5.5 1.5 5.5s1.5-1.3 1.5-5.5-.3-5.5-1.5-5.5-1.5 1.3-1.5 5.5zM646.2 175.6c-3.3 2.3-2.9 6.6.8 9.5 2.5 2.1 2.7 2.5 1.2 3.1-1.2.6-1 .7.8.5 1.5-.1 2.5-.8 2.5-1.7 0-.8.6-1.9 1.3-2.3 1.5-1 1.6-3.7.1-3.7-.7 0-1.7.8-2.4 1.7-1.1 1.5-1.3 1.5-2.4-.4-1.7-3.4-.4-5.5 3-4.8 2.2.5 2.9.3 2.9-.8 0-2.8-4.4-3.5-7.8-1.1zM668 179.5v5.5h4.6c2.7 0 4.3-.4 3.9-1-.3-.6-1.7-1-3.1-1-1.3 0-2.4-.5-2.4-1 0-.6 1.1-1 2.5-1 3.4 0 3.2-2.8-.2-3.3l-2.8-.4 2.8-.2c1.7 0 2.7-.7 2.7-1.6 0-1.1-1.1-1.5-4-1.5h-4v5.5zM678.6 175.6c-1.3 1.2-1.4 2-.5 3.7.9 1.5.9 2.2.1 2.5-.6.2-.8 1-.5 1.8.6 1.6 7.8 2 8.8.4 1-1.6-.4-4.8-2.3-5.3-1.6-.4-1.6-.5.1-.6 2.1-.1 2.3-2.7.1-3.5-2.5-1-4.2-.7-5.8 1zm3.9 6.4c.3.5-.1 1-.9 1-.9 0-1.6-.5-1.6-1 0-.6.4-1 .9-1 .6 0 1.3.4 1.6 1zM704 179.5v5.5h4.5c2.5 0 4.5-.5 4.5-1 0-.6-1.3-1-3-1-1.6 0-3-.5-3-1 0-.6 1.1-1 2.5-1 3.4 0 3.2-2.8-.2-3.3l-2.8-.4 2.8-.2c1.7 0 2.7-.7 2.7-1.6 0-1.1-1.1-1.5-4-1.5h-4v5.5zM714 179.5v5.5h4c4 0 6-1.8 6-5.4 0-2.6-3.8-5.6-7-5.6-3 0-3 .1-3 5.5zm6.5.5c0 1.6-.6 2.6-1.7 2.8-1.4.3-1.8-.3-1.8-2.8s.4-3.1 1.8-2.8c1.1.2 1.7 1.2 1.7 2.8zM725 179.4v5.6h4.5c2.5 0 4.5-.5 4.5-1 0-.6-1.3-1-3-1-1.6 0-3-.5-3-1 0-.6 1.1-1 2.5-1 3.4 0 3.2-2.8-.2-3.3-2.5-.4-2.5-.4.5-.6 4.8-.2 3.5-2.5-1.6-2.9l-4.2-.3v5.5zM735.7 174.7c-.4.3-.7 2.8-.7 5.5 0 3.6.4 4.8 1.5 4.8.9 0 1.5-.9 1.5-2.2 0-2.1 0-2.1 2.1-.2 1.7 1.5 3.8 1.9 11 2l8.9.1v-5.4c0-7.1-2.3-6.8-2.8.3l-.4 4.9-2.3-5.3c-1.3-2.8-2.9-5.2-3.5-5.2-.6 0-2.1 2.3-3.4 5.2-2.3 5.2-4.4 5.3-3.2.1.4-1.4.2-3.1-.5-3.9-1.2-1.4-7-1.9-8.2-.7zm5.8 3.3c-.3.5-1.3 1-2.1 1s-1.4-.5-1.4-1c0-.6.9-1 2.1-1 1.1 0 1.7.4 1.4 1zM763.3 174.7c-.7.2-1.3 1.5-1.3 2.8 0 1.7.8 2.6 3.1 3.4 1.8.6 2.8 1.5 2.4 2.1-.5.8-1.3.6-2.5-.5-2.1-1.9-4.2-1.2-3.3 1.1.9 2.3 8.7 1.5 9.1-1 .2-1.1-.4-2.3-1.4-2.9-1.7-1-1.7-1.1 0-1.7 1.7-.6 1.7-.7.2-2.3-1.7-1.7-3.9-2-6.3-1z"/></svg>